<?xml version="1.0" encoding="UTF-8"?><svg id="Layer_1" xmlns="http://www.w3.org/2000/svg" xmlns:xlink="http://www.w3.org/1999/xlink" viewBox="0 0 633.16 206.94"><defs><style>.cls-1{fill:#fff;}.cls-2{clip-path:url(#clippath);}.cls-3{fill:none;}.cls-4{fill:#00732f;}.cls-5{fill:#f90;}.cls-6{fill:red;}</style><clipPath id="clippath"><rect class="cls-3" x="314.1" y="1.47" width="323" height="206"/></clipPath></defs><g><path class="cls-5" d="M195.28,92.21c-94.7,45.07-153.46,7.36-191.08-15.54-2.33-1.44-6.28,.34-2.85,4.28,12.53,15.2,53.61,51.82,107.22,51.82s85.57-29.27,89.56-34.38c3.97-5.06,1.16-7.86-2.84-6.18h0Zm26.59-14.69c-2.54-3.31-15.46-3.93-23.59-2.93-8.14,.97-20.37,5.95-19.3,8.94,.55,1.12,1.66,.62,7.25,.11,5.61-.56,21.32-2.54,24.6,1.74,3.29,4.31-5.01,24.84-6.53,28.15-1.46,3.31,.56,4.17,3.31,1.96,2.71-2.2,7.63-7.91,10.92-15.99,3.27-8.12,5.27-19.46,3.34-21.98h0Z"/><path class="cls-5" d="M195.28,92.21c-94.7,45.07-153.46,7.36-191.08-15.54-2.33-1.44-6.28,.34-2.85,4.28,12.53,15.2,53.61,51.82,107.22,51.82s85.57-29.27,89.56-34.38c3.97-5.06,1.16-7.86-2.84-6.18h0Zm26.59-14.69c-2.54-3.31-15.46-3.93-23.59-2.93-8.14,.97-20.37,5.95-19.3,8.94,.55,1.12,1.66,.62,7.25,.11,5.61-.56,21.32-2.54,24.6,1.74,3.29,4.31-5.01,24.84-6.53,28.15-1.46,3.31,.56,4.17,3.31,1.96,2.71-2.2,7.63-7.91,10.92-15.99,3.27-8.12,5.27-19.46,3.34-21.98h0Z"/></g><g class="cls-2"><g><rect id="green" class="cls-4" x="305.4" y="1.47" width="349.32" height="205.07"/><rect class="cls-1" x="305.4" y="69.82" width="349.32" height="136.72"/><rect x="305.4" y="138.18" width="349.32" height="68.36"/><rect id="red" class="cls-6" x="305.4" y="1.47" width="87.33" height="205.07"/></g></g></svg>