<?xml version="1.0" encoding="UTF-8"?><svg id="Layer_1" xmlns="http://www.w3.org/2000/svg" xmlns:xlink="http://www.w3.org/1999/xlink" viewBox="0 0 633.16 206.94"><defs><style>.cls-1{fill:#fff;}.cls-2{fill:#006c35;}.cls-3{clip-path:url(#clippath);}.cls-4{fill:none;}.cls-5{fill:#383a42;}</style><clipPath id="clippath"><rect class="cls-4" x="310.16" y=".47" width="323" height="206"/></clipPath></defs><g class="cls-3"><g><path class="cls-2" d="M296.76-5.05h349.8V228.15H296.76V-5.05Z"/><path class="cls-1" d="M522.81,160.06h-4.86c-.54,.71-1.38,1.55-1.86,1.55-.57,0-2.13-1.59-2.13-2.16,0-.44,.74-1.28,1.42-1.82v-1.32h-88.06c-11.61,0-17.38-.1-21.26-3.98h109.31v-1.32c-.64-.51-1.42-1.38-1.42-1.82,0-.57,1.55-2.16,2.13-2.16s2.13,1.59,2.13,2.16c0,.44-.78,1.32-1.42,1.82v1.32h14.85c3.98,0,5.6,.34,5.6,3.98,0,3.88-1.05,4.59-2.7,4.59-.57,0-1.52-.03-2.23-.84h-5.77c-.42,.69-1.61,1.02-2.64,.74-.5-.14-.9-.4-1.1-.74Zm3.75-1.21h5.09c-.27-.74-.27-1.52,0-2.53h-14.85v1.32c.37,.27,.88,.84,1.15,1.21h4.86c.42-.69,1.61-1.02,2.64-.74,.5,.14,.9,.4,1.1,.74Z"/><path class="cls-1" d="M534.96,106.42c.34,.4,.54,.78-.03,1.45-.54,.47-.91,.74-1.48,1.21-.24,.4-.4,1.05,.37,1.25,1.48,.4,4.22-1.35,4.22-1.38,.57-.4,.37-1.15,.34-1.15-.34-.34-1.05-.13-1.52-.2-.24,0-.37-.44-.03-1.08,.3-.4,.44-.64,.64-1.11,.2-.47,0-.81-.81-1.08-.84-.13-1.18-.07-2.09,0-.51,.1-.67,.34-.78,.91,.03,.88,.61,.81,1.18,1.18Zm-6.41-20.85c-.47,.64-.81,1.15,.1,1.65,.94,.47,2.36,1.79,1.75,3.27-.34,1.15,0,2.06,1.05,.4,1.08-1.72,.24-3.78-.81-5.09-.91-1.15-1.52-.91-2.09-.24Zm28.41-23.55c1.28,1.11,1.99,.78,1.18-1.11-.94-1.89-1.86-3.88-2.7-5.67-.91-1.89-1.15-1.45-2.19-.1-1.18,1.32-1.28,2.33-.84,3.1,2.23,17.65,3.27,26.86,3.51,32.19,.47,7.76-1.52,12.11-9.45,17.11-2.56,1.65-5.47,3.54,.71,2.09,5.77-1.38,11.94-5.03,11.94-18.96,0-10.49-2.43-21.73-2.16-28.64Zm-9.45-3.58c-.71,1.11-.57,1.35,.24,2.56,.81,1.35,1.52,3.78,1.52,5.67s.71,1.65,1.05-.1c.37-1.69,.24-4.99-.81-7.32-1.05-2.46-1.42-1.59-1.99-.81Zm6.78,36.74c-.24-1.55-.71-3.1-2.8-6.07-2.09-2.9-3.98-5.57-5.84-8.13-.57-6.65-1.42-13.77-1.42-17.51,.94,.88,1.65,0,1.18-1.45-.47-1.45-1.42-5.33-2.09-6.98-.61-1.59-1.28-1.25-2.23,.2-.81,1.45-1.38,2.13-.81,3.21,.24,6.44,1.15,12.69,2.23,18.32-1.89-2.43-3.64-4.76-5.26-6.88-.1-2.43-.34-4.86-.47-7.32,1.05,.78,1.52,.57,.94-.88-.47-1.55-1.75-4.79-2.33-6.21-.61-1.45-.94-1.45-1.75-.34-1.28,1.89-1.65,3.21-.57,4.99,.1,1.55,.34,3.21,.44,4.66-1.05-1.32-1.96-2.67-2.8-3.88,1.05,.54,1.89-.34,.71-1.35-1.05-.98-3.27-2.67-4.18-3.88-1.05-1.21-1.99-1.21-1.99-.1s.1,2.09,0,3.1c-.24,.88-.24,1.79,1.15,3.34,2.7,3.1,5.26,6.31,7.73,9.31,.91,11.1,1.52,18.22,1.28,22.64-.13,2.67-1.05,4.22-2.56,4.66-1.52,.57-3.04-.44-4.45-2.43-2.56-3.54-3.48-2.87-5.47,.24-1.89,2.87-3.17,5.33-4.22,7.42-.91,1.99-2.56,3.78-4.08,1.11-1.38-2.67-1.62-5.67-1.52-7.76,0-2.13-.34-3.78-1.15-.44-2.09,8.2-.81,9.99,1.52,11.74,2.9,2.46,3.85,2.67,5.36,.57,3.04-4.01,3.85-7.56,5.6-9.55,1.38-1.55,1.38-.34,2.09,.44,1.75,2.09,3.27,2.87,5.7,3.21,2.46,.44,6.88-1.55,6.55-9.31-.24-4.66-.57-11-1.05-17.75,2.33,3.1,4.42,5.87,6.07,8.1,.81,4.42,1.28,8.43,1.05,11.64-.24,3.68,.57,3.68,1.38-.1,.24-1.55,.24-4.79-.1-8.67,3.14,4.01,4.99,6.68,6.28,8.57,1.42,2.33,2.23,4.32,1.89-.47Zm-31.98-8.74c0-.78,.37-1.01,1.75-2.13,1.18-.88,4.45-3.1,5.5-4.12,1.05-.98,1.86-1.89,2.09-.64,.1,1.21,.34,1.65-.94,2.33-1.28,.54-4.66,2.53-5.7,3.31-1.18,.91-2.7,2.02-2.7,1.25Zm.37-13.66c-.24,1.01-1.65,1.01-1.52-.1,.1-1.11,0-.91,0-1.79-.13-.88,1.05-1.45,1.62-.67,.71,.78,1.89,3.24,2.23,4.12,.47,.88,.71,.67,.71-.54-.13-1.45-.37-2.8-.24-3.78,.1-.57,.47-1.25,1.15-1.79,.84-.54,1.28-.67,1.65,.34,.24,.88,.91,.98,.57,1.79-.47,1.08-1.52-1.11-2.23,.44-.34,1.11,0,4.22-.1,5.33,0,.98-.47,2.43-1.28,.78-.57-1.11-1.42-3-2.56-4.12Zm-8.06-9.01c1.65,.78,3.41,1.25,2.13-.64-1.32-1.79-2.36-4.79-3.04-7.02-.84-2.19-1.05-2.09-2.36-.2-1.96,2.87-.2,5.67,.24,8.97,1.65,11.88,3.27,23.99,3.75,27.19,.47,3.58,1.05,5.9,.1,9.78-.34,1.21,.13,1.55,.94,.1,3.27-5.87,1.05-11,.71-14.31-.57-5.13-2.46-18.66-2.8-24.09m-7.69-.34c.91,.78,1.99,.78,1.38-.88-.57-1.69-1.05-3.68-1.62-5.57-.57-1.89-.94-2.33-1.65-1.45-.81,1.01-1.38,1.35-1.96,2.02-.61,.54-.71,1.75,0,2.87,2.56,16.77,2.67,24.19,3.04,30.43,.34,6.21,1.28,9.08-2.8,13.29-4.45,4.55-7.12,5.67-9.11,6.11-2.23,.61-3.14,1.48-.74,1.48,7.83,0,8.6-2.09,11.81-5.47,2.6-2.73,3.85-6.21,3.64-14.44-.24-14.44-2.36-20.65-1.99-28.41Zm-29.29,42.41c1.18-.67,1.75-1.21,2.67-1.55,.94-.47,1.65-.34,.94,1.55-.71,2.19-.34,2.87,1.18,2.33,1.38-.44,2.19-1.01,3.37-1.45,1.05-.44,2.23-.44,.57,.78-1.28,1.01-3.14,2.33-4.18,2.56-2.33,.54-3.51-.34-3.04-2.13,.47-1.65,.81-2.33-.57-1.75-1.65,.64-1.52,0-.94-.34Zm18.79-37.75c.44,1.35,1.05,1.99,1.38,.34,.24-1.45,.71-1.89,.94-.34,.34,1.55,1.28,1.35,1.52-.1,.34-1.45,.81-2.23,1.05-.67,.24,1.65,.1,2.23-.13,2.77-.1,.47-1.05,1.01-1.75,.34-.81-.67-1.05-.67-1.62-.1-1.28,1.11-1.75,.34-1.99-1.21-.1-1.35,.37-1.89,.61-1.01Zm7.79,27.97c-1.05-4.99-5.84-12.99-12.96-23.41-.2-2.77-.34-5.33-.34-7.66,1.05,1.11,1.75,.44,1.42-1.01-.71-2.53-1.75-4.66-3.04-7.52-.47-1.21-1.75-1.55-2.33,.2-.84,2.13-.94,2.56,.1,4.01-.1,1.55,.47,4.22,.71,6.65-1.28-1.79-2.94-3.98-4.22-5.87,1.99,.78,3.17,.2,1.42-1.55-1.75-1.89-4.22-3.78-5.74-5.13-1.52-1.32-2.19-.44-1.96,.78,.1,1.25,.24,2.13,.1,3.1-.1,1.01,.24,1.69,1.75,2.23,3.04,3.78,6.07,7.66,8.87,11.67,.34,3.31,1.05,6.98,1.38,9.99,.94,7.09,2.33,16.3,1.18,20.31-.94,3,0,4.32,1.52-.24,1.38-4.55,1.25-8.87,.34-15.65-.37-2.63-.47-5.97-.81-9.08,4.89,7.19,9.31,14.07,11.3,18.86,1.05,2.56,1.99,3.1,1.28-.67Zm-8.74-40.52c-.47,.91-.81,1.55,.1,2.23,.94,.67,2.36,2.46,1.75,4.45-.34,1.55,0,2.77,1.05,.54,1.05-2.33,.24-5.09-.81-6.88-.94-1.55-1.52-1.21-2.09-.34Zm-34.51,24.22c-.24,1.55,.1,2.53,.67,3.31,.61,.78,1.75,.67,2.13-.2,.34-1.01,.57-1.11,1.28-.34,.81,.78,3.48,.1,2.19-3.78-.57-1.55-.81-1.21-.81,.54,0,2.8-.94,2.8-1.99,.13-.34-1.01-.81-1.01-.91,.34,0,2.53-1.18,2.87-1.89,.3-.24-1.08-.44-1.99-.67-.3Zm16.09,3.98c2.43-.54,1.05-.78-.61-1.79-1.72-.98-2.43-.98-2.33,.13,.13,.64,.13,1.32,.37,2.19,.81-.2,1.62-.3,2.56-.54Zm-4.79-5.43c1.86-2.56,4.89-1.79,8.4,.54,3.51,2.33,2.09,6.01-1.28,7.89-.81,.44-1.86,.88-3.17,1.32,.37,.78-.1,1.01-1.15,.34-3.04,1.01-7.02,2.46-9.78,3.88,3.37,.24,17.38,0,20.18-.34,2.8-.2,2.33,.24,1.52,2.56-.84,2.23-1.75,1.99-4.08,2.33-3.75,.67-9.24,2.23-13.19,3.78-3.98,1.55-2.56,4.32,1.52,5.77,3.14,.78,2.8,1.11,2.23,2.9-.47,1.65-.47,2.09-4.32,1.55-9.45-1.45-12.85-6.44-14.37-10.32-5.8,7.86-11.54,12.21-16.9,10.86-2.67-.54-3.95-2.87-4.18-5.77-3.75,1.65-8.06,3.1-13.66,4.66-1.28,.44-2.33-.1-.57-.88,3.71-1.79,9.55-4.76,14.34-8,.47-1.99,1.52-4.76,2.56-6.78,.57-1.21,.94-.78,.94,.24,0,.78-.24,2.77-.13,4.22,.84-.67,1.99-1.32,2.56-1.89,3.27-2.77,6.88-4.55,4.45-8.97-1.05-2.02-1.89-3.44-2.23-4.35-2.09-.78-1.52-1.89-.57-3.78,.91-1.86,1.28-2.33,3.14-.2,2.7,3,3.04,4.32,1.18,4.12,2.9,7.09,2.19,10.76-2.33,14.98-2.13,2.09-4.32,3.78-6.88,5.09-.24,1.89,.57,3.78,4.28,3.21,4.93-.64,10.39-6.75,12.72-11.4-1.05-3.91-3.37-10.9-4.76-14.44-.71-1.79,0-2.56,.57-4.01,.71-1.42,1.05-2.33,1.86-.3,.81,1.89,3.37,6.65,4.55,12.31,1.28,5.67,1.05,10.53,4.08,13.19,1.42,1.21,3.14,2.02,5.03,2.46-1.42-3.78,1.52-6.68,5.36-8-2.33-2.13-5.97-1.79-10.05-1.99-3-.13-2.67-.47-1.86-3,.81-2.56,1.75-2.9,3.98-3.78,3.04-1.11,6.04-2.23,9.21-3.1-1.99-2.77-.71-4.79,.81-6.88Zm-14.71-22.77c-.81,.78-.81,.91-.1,1.89,.71,.78,1.75,3.24,1.38,5.77-.1,1.11,.13,2.23,.71,.24,.47-1.99,.34-4.79-.24-6.44-.57-1.65-1.28-2.09-1.75-1.45Zm-15.86,4.35c-1.86,4.99-1.75,9.75,2.09,13.87,2.23,2.33,3.85,1.21,4.79-1.35,1.05-2.43,1.75-4.86,2.46-6.55,.67-1.65,1.28-1.32,1.15,.24-.34,3.1-.57,8.1,2.7,9.99,3.27,1.89,8.27-1.32,10.02-4.66,5.26,6.65,9.92,3.54,10.49-2.9,.13-1.99-.81-6.31-1.38-7.52-.57-1.35-.24-1.35,.57-.67,.81,.78,2.23,1.21,1.52-1.01-.81-2.09-1.75-3.31-3.04-4.32-1.15-1.01-1.38-.44-1.86,.34-.47,.78-.37,.98-1.05,1.55-.71,.67-.61,.98,0,2.23,1.96,4.86,3.85,11.98,.67,12.65-2.9,.54-4.76-5.47-4.89-8.1-.1-3.58-.57-6.58-1.28-8.43-.51-1.21-.81-1.79-1.08-1.79-.47,0-1.15,1.92-1.59,2.67-.47,.78,0,.98,.34,2.53,1.75,7.79,1.52,11.34-2.23,13.33-3.71,2.13-5.7,.13-5.7-2.33-.1-2.43-.1-5.43,.24-7.66,.24-2.23,.81-2.53,0-3.64-.81-1.25-1.52-.78-2.56,.64-2.33,3.1-4.66,8.33-5.5,10.76-.81,2.56-2.43,1.69-3.61-.44-1.28-2.53-1.15-7.09-.71-8.87,.47-1.79,.24-2.56-.57-.54Zm-4.79-1.89c.24-.67-.34-1.35-.81-.34-.34,.78-.47,1.32,.24,1.79,.24-.47,.47-1.01,.57-1.45Zm-2.8-1.01c1.42-3.44,6.07-3,4.79,1.45-.1,.67-.47,1.55-.91,2.43,.67,.91,.34,2.02-1.08,1.79-1.52,2.33-4.42,4.89-9.45,6.98-2.33,1.01-2.67,.24-.91-.78,3.37-2.09,6.51-4.66,8.5-7.32-1.52-1.21-1.52-3-.94-4.55Zm-.81,12.31c-1.38,1.69-2.43,4.12-.47,5.57,1.08,.88,3.27-.1,4.08-1.79,.84-1.75,.47-1.99-.91-.54-1.99,2.09-3.98,.2-1.89-2.67,1.42-1.99,.61-2.46-.81-.57Zm-3.14,24.43c.24,.78,.1,2.56-.24,3.34-.47,.98,0,1.45,.71,.2,.67-1.32,1.15-2.87,.81-4.42-.13-1.11-.13-1.45-1.18-1.89-1.15-.44-1.52,.2-1.86,1.11-.47,1.11,.1,2.33,1.75,1.65Zm-17.98-7.32c-2.09,.54-2.43-.24-2.33-1.45,.13-1.21,.24-1.55,1.65-.98,.57,.2,1.28,.98,1.99,1.99-.47,.1-.94,.34-1.32,.44Zm1.75-4.99c-2.09-1.99-3.85-2.13-5.6,.34-1.62,2.33-1.52,2.87-1.38,4.99,.1,2.09-.34,2.87,1.38,3.44,1.65,.54,2.36,.34,3.41,0,.81-.24,1.96-.57,3.14-1.01,.24,1.11,.1,2.33-.57,3.24-4.32,4.86-10.97,8.43-13.9,5.2-1.62-1.75-2.33-4.55-1.86-7.86,.47-2.8-.47-1.55-.81-.57-1.05,3.24-1.42,7.89,0,10.22,1.99,3.21,5.13,4.66,10.16,2.56,4.99-2.13,9.89-5.9,9.68-11.1,0-1.01-.13-1.89-.13-2.56,.47-.24,1.28-.78,1.86-1.01,.13,1.79-.1,4.01,0,5.77,.24,5.67-2.09,7.32-4.18,8.91-2.94,2.19-6.88,3.64-10.26,4.22-8.06,1.08-9.92-3.78-9.82-10.32,0-1.01,.47-1.69,.47-3.14-.1-2.77-.47-2.33-1.38,.47-.84,2.67-1.89,8.87,.81,13.97,2.8,5.13,12.25,3.68,19.6,.34,7.22-3.34,8.03-9.65,7.69-15.99,0-1.65-.13-3.44-.24-5.33,.24-.1,.34-.3,.47-.44,1.05,3.24,5.94,2.33,7.46,.44,.81-.88,.81-.98,1.52,0,1.05,1.45,4.66,1.89,5.6-.1,.81-2.09,.71-4.12,.47-5.67s-.61-1.42-1.65-.64c-1.15,.88-.24,.98-.1,2.09,.47,4.22-3.37,3.88-3.85-.44-.24-2.67-.71-1.65-1.05-.44-1.65,5.2-6.44,6.21-5.97,.2,.13-1.75-1.05-1.21-1.62-.54-.57,.44-1.05,1.01-1.62,1.32-.37-4.86-.71-10.43-1.32-17.07,1.42,1.65,2.7-.24,1.75-2.13-.67-1.45-1.75-4.66-2.43-6.44-.61-1.75-.94-1.21-2.46,.24-1.38,1.55-1.15,1.89-.47,3.44-.24,1.89,.13,3.78,.61,7.66,.34,2.77,1.28,8.54,1.72,15.86-.67,.34-1.72,1.01-2.43,1.35-.57-1.21-1.42-2.23-2.7-3.44Zm-25.07,14.1c.1,1.11,.1,1.89,.1,2.33,0,.78-.44,1.55-.67,2.53-1.42,4.79,.67,7.12,1.86,5.33,1.05-1.75,1.62-1.55,1.52-.1-.1,4.79-4.89,5.09-5.26,1.11-.57-6.34,.94-7.32,1.42-9.45,.34-1.42,.81-2.53,1.05-1.75Zm-2.46-7.02c3.41-3.88,7.73-5.87,9.92-6.55,1.42-.44,2.13-.98,2.13,.34,.1,1.21,0,1.35-1.18,1.69-2.7,.64-8.3,3.31-10.16,4.66-.91,.67-2.09,1.45-.71-.13Zm19.03-33.4c-.34,.91-.1,1.99,.47,2.67,.57,.78,1.62,.78,2.33,.24,.57-.67,.57-.78,1.18,.1,.34,.67,1.48,.44,1.86-.24,.24-.54,.57-1.08,.24-1.86-.37-.78-.37-.57-.61,.3-.2,1.45-1.62,1.11-1.72-.64,0-1.69-.37-.78-.84,.34-.81,1.65-1.96,1.32-1.96-.13,0-1.21-.37-2.23-.94-.78Zm-5.03,23.31c.37,4.01,1.52,11.44,1.52,14,.13,2.67,.47,1.89,1.18,.44s.57-3,.47-5.13c-.24-2.19-.37-5.87-.84-10.86,.94-.67,1.75-1.79,2.13-2.43,.91-1.69,1.15-1.55,1.52-.24,.67,2.67,3.48,4.45,7.22,1.89,3.51-2.33,1.99-7.22,.47-12.55,1.28,.24,1.75-.78,.91-2.09-.34-.78-1.05-1.45-1.62-2.13-.57-.67-1.18-1.21-1.75-.54-.47,.67-1.05,1.21-1.38,1.65-.37,.44-.37,.88,.1,1.99,1.42,3.1,2.33,6.44,2.56,8.33,.37,1.79-.34,2.23-1.62,2.23s-3.04-.34-3.75-3-1.05-3.88-.91-5.67c.1-1.75,.34-3-.94-4.76-1.42-1.79-1.52-1.45-1.86-.57-.24,1.01-.71,2.46-.24,4.12,.57,2.43,.91,4.55,1.28,6.01,.24,.98-.84,3.1-2.33,4.22-.37-3.34-.94-7.79-1.18-11.34,1.99-.67,.94-3.21-.71-5.97-1.15-2.13-1.62-1.25-2.43,.1-.84,1.32-.24,1.89,.34,3-.47,.88,.34,2.19,.71,4.66,.1,1.55,.47,5.97,.81,9.89-1.62,0-2.56-1.01-3.14-2.33-1.28-2.8-.94-5.33-.37-7.02,.61-1.65,1.18-4.22,.13-4.86-.94-.67-2.23,.1-3.04,1.32-1.42,1.99-2.7,4.89-2.8,7.89-.13,1.21-.47,3.54-1.05,4.42-.47,.91-1.28,1.01-2.13-.34-1.38-2.09-1.86-7.42-1.72-10.19,0-1.35-.37-1.55-.84,0-.4,1.42-.57,2.87-.57,4.25,0,3.91,1.15,7.49,2.09,9.28,1.28,2.43,2.94,1.89,4.08-.1,1.75-3,1.05-5.67,2.7-10.12,.94-2.77,1.28-.64,.94,1.01-.84,4.45-.61,11.64,6.04,11.54Zm-10.02-17.41c1.18-3.14,1.28-5.9-.1-4.89-1.18,.88-1.89,0-.94-1.01,1.15-1.45,2.67-1.89,3.04,.57,.1,1.89-1.28,4.22-1.99,5.33Z"/></g></g><g><path class="cls-5" d="M31.45,90.32c.07-.02-.33,.06-.66,.25-9.76,5.62-19.53,11.21-29.21,16.97C.68,108.08,0,109.76,0,110.91c.08,11.68,2.52,22.91,6.95,33.71,20.79,50.62,80.52,75.85,132.58,56.01,44.76-17.06,72.01-60.89,66.68-108.14-3.1-27.45-16.09-49.9-36.71-68.09-.72-.64-1.51-1.2-2.46-1.96-5.21,8.98-10.21,17.8-15.44,26.49-1.4,2.33-1.43,3.59,.69,5.69,18.68,18.46,25.85,40.69,19.64,66.31-9.06,37.35-46.53,60.43-84.19,52.55-30.32-6.34-53.16-31.54-56.19-62.49-.67-6.86-.1-13.84-.1-20.69ZM134.37,4.89C123.55-.2,102.69-2.08,91.82,1.07c-.98,.28-1.97,1.31-2.51,2.25-6.59,11.24-13.1,22.53-19.61,33.82-.28,.48-.39,1.05-.69,1.88,15.03-7.18,30.21-8.22,45.87-4.65,.84,.19,2.38-.07,2.72-.64,5.63-9.48,11.12-19.05,16.77-28.83Z"/><path class="cls-5" d="M31.45,90.32c0,6.84-.57,13.83,.1,20.69,3.03,30.94,25.87,56.14,56.19,62.49,37.66,7.88,75.13-15.21,84.19-52.55,6.21-25.61-.96-47.84-19.64-66.31-2.12-2.1-2.1-3.36-.69-5.69,5.23-8.69,10.23-17.52,15.44-26.49,.95,.76,1.74,1.32,2.46,1.96,20.62,18.18,33.61,40.63,36.71,68.09,5.33,47.26-21.91,91.08-66.68,108.14-52.06,19.84-111.78-5.38-132.58-56.01C2.52,133.82,.08,122.59,0,110.91c0-1.15,.68-2.83,1.58-3.37,9.67-5.76,19.45-11.35,29.21-16.97,.33-.19,.73-.28,.66-.25Z"/><path class="cls-5" d="M134.37,4.89c-5.65,9.78-11.14,19.35-16.77,28.83-.34,.57-1.88,.84-2.72,.64-15.65-3.56-30.83-2.52-45.87,4.65,.3-.83,.41-1.4,.69-1.88,6.51-11.29,13.02-22.58,19.61-33.82,.55-.94,1.53-1.96,2.51-2.25,10.86-3.15,31.73-1.27,42.54,3.82Z"/></g></svg>