<?xml version="1.0" encoding="utf-8"?>
<!-- Generator: Adobe Illustrator 25.0.1, SVG Export Plug-In . SVG Version: 6.00 Build 0)  -->
<svg version="1.1" id="Layer_1" xmlns="http://www.w3.org/2000/svg" xmlns:xlink="http://www.w3.org/1999/xlink" x="0px" y="0px"
	 viewBox="0 0 1362.38 425.87" style="enable-background:new 0 0 1362.38 425.87;" xml:space="preserve">
<style type="text/css">
	.st0{fill:#4C5462;}
	.st1{fill:#0052FF;}
</style>
<g>
	<g>
		<g>
			<path class="st0" d="M716.08,297.43c-1.46-1.03-2.62-2.48-3.48-4.38l-42.13-91.71v95.03c0,1.57-0.61,2.78-1.82,3.65
				c-1.22,0.86-2.63,1.3-4.25,1.3c-1.62,0-3.03-0.43-4.21-1.3c-1.19-0.86-1.78-2.08-1.78-3.65v-100.7c0-2.65,0.99-4.9,2.96-6.76
				s4.28-2.79,6.93-2.79c4.7,0,8.32,2.73,10.86,8.18l41.4,89.76l41.48-89.76c2.54-5.46,6.13-8.18,10.78-8.18
				c2.65,0,4.96,0.93,6.93,2.79s2.96,4.12,2.96,6.76v100.7c0,1.57-0.59,2.78-1.78,3.65c-1.19,0.86-2.59,1.3-4.21,1.3
				s-3.03-0.43-4.21-1.3c-1.19-0.86-1.78-2.08-1.78-3.65v-95.03l-42.13,91.71c-0.92,1.89-2.09,3.35-3.52,4.38
				c-1.43,1.03-2.93,1.54-4.5,1.54C719.03,298.97,717.54,298.45,716.08,297.43z"/>
			<path class="st0" d="M810.39,297.06c-5.24-4.02-7.86-9.79-7.86-17.3c0-3.46,0.38-6.41,1.13-8.87c0.76-2.46,2.05-4.59,3.89-6.4
				c1.84-1.81,4.08-3.28,6.72-4.42c2.64-1.13,6.14-2.05,10.49-2.75c4.35-0.7,9.07-1.17,14.18-1.42c5.1-0.24,11.33-0.36,18.67-0.36
				v-10.21c0-6.05-1.73-10.53-5.18-13.45c-3.46-2.92-8.18-4.38-14.18-4.38c-5.08,0-9.47,0.53-13.17,1.58
				c-3.7,1.05-7.74,2.63-12.11,4.74c-0.65,0.32-1.24,0.49-1.78,0.49c-1.13,0-2.15-0.49-3.04-1.46c-0.89-0.97-1.34-2.03-1.34-3.16
				c0-1.24,0.51-2.19,1.54-2.84c8.05-5.02,18.09-7.53,30.14-7.53c9.72,0,17.28,2.23,22.68,6.68c5.4,4.46,8.1,11.28,8.1,20.46v49.83
				c0,1.62-0.62,2.9-1.86,3.85c-1.24,0.95-2.7,1.42-4.38,1.42c-1.51,0-2.81-0.43-3.89-1.3c-1.08-0.86-1.62-2.11-1.62-3.73v-10.77
				c-5.46,11.56-14.23,17.34-26.33,17.34C822.56,303.1,815.62,301.09,810.39,297.06z M850.16,286.69
				c4.97-5.59,7.45-12.73,7.45-21.43v-2.67c-12.21,0-21.32,0.46-27.34,1.38c-6.02,0.92-10.26,2.53-12.72,4.82
				c-2.46,2.3-3.69,5.79-3.69,10.49c0,10.53,6.27,15.8,18.8,15.8C839.36,295.08,845.2,292.28,850.16,286.69z"/>
			<path class="st0" d="M896.1,299.98c-1.13-0.94-1.7-2.28-1.7-4.01v-69.03c0-1.73,0.59-3.06,1.78-4.01
				c1.19-0.94,2.56-1.42,4.13-1.42c1.62,0,3.01,0.49,4.17,1.46c1.16,0.97,1.77,2.35,1.82,4.13v9.56c1.29-5.02,3.96-9.21,7.98-12.56
				c4.02-3.35,9.09-5.02,15.19-5.02c1.35,0,2.46,0.55,3.32,1.66c0.86,1.11,1.3,2.36,1.3,3.77c0,1.3-0.43,2.4-1.3,3.32
				c-0.86,0.92-2.11,1.38-3.73,1.38c-3.94,0-7.45,0.69-10.53,2.07c-3.08,1.38-5.47,3.17-7.17,5.39c-1.7,2.22-2.97,4.52-3.81,6.93
				c-0.84,2.4-1.25,4.79-1.25,7.17v45.21c0,1.67-0.61,3-1.82,3.97c-1.22,0.97-2.66,1.46-4.33,1.46
				C898.58,301.4,897.23,300.92,896.1,299.98z"/>
			<path class="st0" d="M953.01,299.86c-1.11-1.03-1.66-2.54-1.66-4.54V192.11c0-1.89,0.61-3.36,1.82-4.42
				c1.21-1.05,2.6-1.58,4.17-1.58c1.57,0,2.93,0.53,4.09,1.58c1.16,1.05,1.74,2.53,1.74,4.42v62.71l38.24-33.78
				c0.86-0.7,1.84-1.05,2.92-1.05c1.4,0,2.67,0.51,3.81,1.54c1.13,1.03,1.7,2.21,1.7,3.56c0,1.35-0.62,2.57-1.86,3.65l-31.76,27.63
				l33.86,35.97c1.03,1.08,1.54,2.24,1.54,3.48c0,1.41-0.55,2.66-1.66,3.77c-1.11,1.11-2.36,1.66-3.77,1.66
				c-1.46,0-2.78-0.62-3.97-1.86l-39.05-41.88v37.83c0,1.89-0.59,3.38-1.78,4.46c-1.19,1.08-2.62,1.62-4.29,1.62
				C955.48,301.4,954.12,300.88,953.01,299.86z"/>
			<path class="st0" d="M1063.8,303.1c-11.02,0-20.24-3.79-27.67-11.38c-7.43-7.59-11.14-17.67-11.14-30.26
				c0-7.62,1.49-14.57,4.46-20.86c2.97-6.29,7.43-11.41,13.37-15.35c5.94-3.94,12.85-5.91,20.74-5.91c5.13,0,9.75,0.7,13.85,2.11
				c4.1,1.41,7.49,3.31,10.17,5.71c2.67,2.4,4.93,5.32,6.76,8.75c1.84,3.43,3.17,7.02,4.01,10.78c0.84,3.75,1.31,7.82,1.42,12.19
				c0,1.24-0.45,2.27-1.34,3.08c-0.89,0.81-2.17,1.21-3.85,1.21h-57.68c-0.05,9.94,2.56,17.61,7.86,23.01
				c5.29,5.4,11.88,8.18,19.77,8.34c5.56,0,10.34-0.92,14.34-2.75c4-1.84,7.99-4.38,11.99-7.62c0.97-0.81,2-1.22,3.08-1.22
				c1.03,0,1.9,0.38,2.63,1.13c0.73,0.76,1.09,1.67,1.09,2.75c0,1.46-0.65,2.81-1.95,4.05c-3.78,3.62-8.14,6.56-13.08,8.83
				s-11.17,3.4-18.67,3.4H1063.8z M1089.24,255.62c-0.49-8.37-2.77-15.15-6.85-20.33c-4.08-5.18-10.03-7.78-17.86-7.78
				c-8.1,0-14.52,2.73-19.24,8.18c-4.73,5.46-7.39,12.1-7.98,19.93H1089.24z"/>
			<path class="st0" d="M1128.21,278.06v-48.12h-10.69c-3.13,0-4.7-1.3-4.7-3.89c0-2.65,1.57-3.97,4.7-3.97h10.69l1.38-23.98
				c0.05-1.19,0.71-2.34,1.98-3.44c1.27-1.11,2.47-1.66,3.61-1.66c1.3,0,2.43,0.45,3.4,1.34c0.97,0.89,1.46,2.12,1.46,3.69v24.06
				h15.55c3.02,0,4.54,1.35,4.54,4.05c0,2.54-1.51,3.81-4.54,3.81h-15.55v47.15c0,6.21,0.89,10.51,2.67,12.88
				c1.78,2.38,4.54,3.56,8.26,3.56h0.73l5.1-0.24h0.24c1.57,0,2.8,0.47,3.69,1.42c0.89,0.95,1.34,2.04,1.34,3.28
				c0,2.05-0.86,3.4-2.59,4.05c-1.73,0.65-4.27,0.97-7.62,0.97c-0.54,0-1.35-0.01-2.43-0.04c-1.08-0.03-1.92-0.04-2.51-0.04
				C1134.45,302.93,1128.21,294.64,1128.21,278.06z"/>
			<path class="st0" d="M1223.89,221.39c4.75,1.32,8.48,2.71,11.18,4.17c1.67,0.97,2.51,2.3,2.51,3.97c0,1.03-0.35,1.92-1.05,2.67
				c-0.7,0.76-1.65,1.13-2.83,1.13c-0.54,0-1.27-0.13-2.19-0.41c-0.32-0.11-1.22-0.46-2.67-1.05c-1.46-0.59-2.75-1.08-3.89-1.46
				c-1.13-0.38-2.55-0.81-4.25-1.3s-3.47-0.85-5.31-1.09s-3.7-0.36-5.59-0.36c-14.1,0-21.14,4.35-21.14,13.04
				c0,3.57,0.94,6.05,2.83,7.45c1.89,1.4,6.13,2.89,12.72,4.46l14.83,3.65c7.88,1.94,13.43,4.78,16.65,8.51
				c3.21,3.73,4.82,8.29,4.82,13.69c0,8.16-2.89,14.29-8.67,18.39c-5.78,4.11-13.34,6.18-22.68,6.24c-5.51,0-11.02-0.88-16.53-2.63
				c-5.51-1.75-9.78-3.74-12.8-5.96c-1.46-1.08-2.19-2.35-2.19-3.81c0-1.08,0.39-2.01,1.17-2.79c0.78-0.78,1.77-1.17,2.96-1.17
				c1.08,0,2.21,0.35,3.4,1.05c7.56,4.7,15.74,7.05,24.55,7.05c6.43-0.05,11.48-1.38,15.15-3.97c3.67-2.59,5.51-6.32,5.51-11.18
				c0-3.78-1.07-6.74-3.2-8.87c-2.13-2.13-5.79-3.82-10.98-5.06l-15.23-3.65c-3.24-0.81-5.89-1.53-7.94-2.15
				c-2.05-0.62-4.17-1.48-6.36-2.59c-2.19-1.11-3.88-2.34-5.06-3.69c-1.19-1.35-2.17-3.08-2.96-5.19c-0.78-2.11-1.17-4.56-1.17-7.37
				c0-3.94,0.89-7.36,2.67-10.25c1.78-2.89,4.21-5.14,7.29-6.76c3.08-1.62,6.41-2.81,10-3.57c3.59-0.75,7.47-1.13,11.63-1.13
				C1214.19,219.41,1219.13,220.07,1223.89,221.39z"/>
		</g>
		<g>
			<path class="st1" d="M1219.36,126.16c5.76,0,15.14,0,21.01,0c0,46.92,0,0.79,0,47.91c-5.7,0-15.13,0-21.01,0
				C1219.36,127.11,1219.36,173.23,1219.36,126.16z"/>
			<path class="st1" d="M1171.89,126.1c3.92,0,7.61,0,11.47,0c0,47.03,0,0.91,0,48.01c-3.79,0-7.54,0-11.47,0
				C1171.89,127.16,1171.89,173.27,1171.89,126.1z"/>
			<path class="st1" d="M1200.63,126.08c3.89,0,7.5,0,11.35,0c0,47,0,0.87,0,48c-3.71,0-7.44,0-11.35,0
				C1200.63,127.12,1200.63,173.24,1200.63,126.08z"/>
			<path class="st1" d="M1187.71,126.16c2.81,0,5.52,0,8.44,0c0,46.99,0,0.87,0,47.96c-2.79,0-5.52,0-8.44,0
				C1187.71,127.15,1187.71,173.26,1187.71,126.16z"/>
		</g>
		<g>
			<path class="st1" d="M125.23,283.9c-1.22-0.97-1.82-2.43-1.82-4.38c0-1.62,0.38-3.36,1.15-5.23c0.77-1.86,1.76-3.58,2.98-5.17
				c1.21-1.58,2.61-2.9,4.19-3.95c1.58-1.05,3.1-1.58,4.56-1.58c0.57,0,1.13,0.08,1.7,0.24c0.57,0.16,1.09,0.41,1.58,0.73
				c14.91,10.29,31.23,15.43,48.97,15.43c11.26,0,20.39-2.08,27.4-6.26c7.01-4.17,10.51-10.35,10.51-18.53
				c0-7.05-1.88-12.44-5.65-16.16c-3.77-3.73-10.03-7.05-18.78-9.96l-38.64-12.88c-13.29-4.45-23.01-10.15-29.17-17.07
				c-6.16-6.93-9.24-16.34-9.24-28.25c0-14.91,6.08-26.69,18.23-35.36c12.15-8.67,27.67-13,46.54-13c11.75,0,22.99,1.74,33.72,5.23
				c10.73,3.48,19.02,7.7,24.85,12.64c1.13,0.89,1.96,1.96,2.49,3.22c0.53,1.26,0.79,2.61,0.79,4.07c0,3.16-1.09,6.04-3.28,8.63
				c-2.19,2.59-4.82,3.89-7.9,3.89c-1.94,0-3.93-0.61-5.95-1.82c-13.61-7.86-27.79-11.79-42.53-11.79c-7.37,0-13.75,0.69-19.14,2.07
				c-5.39,1.38-9.86,3.85-13.43,7.41c-3.57,3.57-5.35,8.14-5.35,13.73c0,5.43,1.44,9.82,4.31,13.19c2.88,3.36,7.47,6.1,13.79,8.2
				l38.4,12.27c5.99,1.94,11.24,3.95,15.74,6.02c4.5,2.07,8.67,4.48,12.52,7.23c3.85,2.75,6.99,5.81,9.42,9.17
				c2.43,3.36,4.33,7.27,5.71,11.73c1.38,4.46,2.07,9.4,2.07,14.83c0,10.69-2.79,19.95-8.38,27.77c-5.59,7.82-13.49,13.75-23.7,17.8
				c-10.21,4.05-22.16,6.08-35.85,6.08C161.89,304.07,140.95,297.35,125.23,283.9z"/>
			<path class="st1" d="M293.91,297.63c-2.92-2.51-4.37-6.03-4.37-10.57V141.35c0-4.54,1.5-8.08,4.5-10.63
				c3-2.55,6.52-3.83,10.57-3.83c4.05,0,7.55,1.28,10.51,3.83c2.96,2.55,4.44,6.1,4.44,10.63v65.38l65.62-73.4
				c3.73-4.13,7.53-6.2,11.42-6.2c3.65,0,6.91,1.24,9.78,3.71c2.88,2.47,4.31,5.45,4.31,8.93c0,3.24-0.93,5.83-2.8,7.78
				l-57.36,61.61l63.68,69.88c1.94,2.11,2.92,4.9,2.92,8.38c0,3.81-1.54,7.07-4.62,9.78c-3.08,2.71-6.6,4.07-10.57,4.07
				c-4.13,0-8.06-2.19-11.79-6.56l-70.6-79.6v71.94c0,4.46-1.52,7.96-4.56,10.51s-6.58,3.83-10.63,3.83
				C300.31,301.4,296.82,300.14,293.91,297.63z"/>
			<path class="st1" d="M493.08,300.12c-8.43-2.63-15.9-6.5-22.42-11.61c-6.52-5.1-11.65-11.75-15.37-19.93
				c-3.73-8.18-5.59-17.46-5.59-27.83V140.74c0-4.62,1.48-8.2,4.44-10.75c2.96-2.55,6.54-3.83,10.75-3.83
				c4.05,0,7.57,1.28,10.57,3.83c3,2.55,4.5,6.14,4.5,10.75v99.16c0,6.8,1.15,12.84,3.46,18.11c2.31,5.27,5.41,9.46,9.3,12.58
				c3.89,3.12,8.18,5.47,12.88,7.05c4.7,1.58,9.64,2.37,14.83,2.37c5.27,0,10.27-0.79,15.01-2.37s9.05-3.93,12.94-7.05
				c3.89-3.12,6.99-7.31,9.3-12.58c2.31-5.27,3.46-11.3,3.46-18.11v-99.16c0-4.62,1.48-8.2,4.44-10.75
				c2.96-2.55,6.54-3.83,10.75-3.83c4.05,0,7.55,1.28,10.51,3.83c2.96,2.55,4.44,6.14,4.44,10.75v100.01
				c0,10.37-1.88,19.65-5.65,27.83c-3.77,8.18-8.91,14.83-15.43,19.93c-6.52,5.1-14,8.97-22.42,11.61
				c-8.43,2.63-17.54,3.95-27.34,3.95C510.62,304.07,501.51,302.75,493.08,300.12z"/>
		</g>
	</g>
</g>
</svg>
