<svg width="1423" height="643" viewBox="0 0 1423 643" fill="none" xmlns="http://www.w3.org/2000/svg">
<path d="M146.14 0C114.151 0 85.1346 10.3677 62.8744 29.4807L56.3977 6.79558H0.593262V289.086H71.6509V135.648C71.6509 102.788 93.7964 69.5142 136.139 69.5142C169.267 69.5142 189.049 92.6761 189.049 131.479V289.086H260.106V126.241C260.106 48.366 216.439 0 146.14 0Z" fill="#323642"/>
<path fill-rule="evenodd" clip-rule="evenodd" d="M763.393 144.536C763.393 63.4892 827.513 0 909.365 0C991.217 0 1055.35 63.4892 1055.35 144.536C1055.35 225.597 991.217 289.086 909.365 289.086C827.513 289.086 763.393 225.597 763.393 144.536ZM909.363 221.063C951.266 221.063 981.68 188.88 981.68 144.536C981.68 100.207 951.266 68.0442 909.363 68.0442C867.46 68.0442 837.039 100.207 837.039 144.536C837.039 188.88 867.46 221.063 909.363 221.063Z" fill="#323642"/>
<path fill-rule="evenodd" clip-rule="evenodd" d="M365.775 144.536C365.775 63.4892 429.897 0 511.751 0C593.605 0 657.727 63.4892 657.727 144.536C657.727 225.597 593.605 289.086 511.751 289.086C429.897 289.086 365.775 225.597 365.775 144.536ZM511.747 221.063C553.651 221.063 584.066 188.88 584.066 144.536C584.066 100.207 553.651 68.0442 511.747 68.0442C469.843 68.0442 439.421 100.207 439.421 144.536C439.421 188.88 469.843 221.063 511.747 221.063Z" fill="#323642"/>
<path d="M1306.56 0C1274.57 0 1245.56 10.3677 1223.3 29.4807L1216.82 6.79558H1161.02V289.086H1232.07V135.648C1232.07 102.788 1254.22 69.5142 1296.56 69.5142C1329.69 69.5142 1349.46 92.6761 1349.46 131.479V289.086H1420.53V126.241C1420.53 48.366 1376.86 0 1306.56 0Z" fill="#323642"/>
<path d="M28.1682 638.968V561.733C36.0432 574.757 53.0047 585.358 75.4181 585.358C118.125 585.358 143.264 551.738 143.264 508.425C143.264 466.022 119.942 432.402 76.3267 432.402C52.7018 432.402 35.4374 443.911 27.5624 458.45V435.733H0V638.968H28.1682ZM114.187 508.425C114.187 538.411 97.5286 559.916 71.1777 559.916C45.1297 559.916 27.8653 538.411 27.8653 508.425C27.8653 479.349 45.1297 457.541 71.1777 457.541C97.8315 457.541 114.187 479.349 114.187 508.425Z" fill="#2E4AA2"/>
<path d="M188.628 542.348C188.628 565.368 207.71 585.964 237.392 585.964C263.44 585.964 277.979 572.031 284.339 561.733C284.339 572.334 285.248 577.786 285.854 581.42H313.719C313.113 577.786 311.902 570.214 311.902 557.493V484.498C311.902 456.026 294.94 431.19 251.325 431.19C219.825 431.19 194.686 450.575 191.657 478.44L218.916 484.8C220.734 467.839 231.94 455.421 251.931 455.421C274.041 455.421 283.431 467.233 283.431 481.469C283.431 486.618 281.008 491.161 272.224 492.373L232.849 498.127C207.71 501.762 188.628 516.3 188.628 542.348ZM241.33 562.036C226.791 562.036 217.705 551.738 217.705 540.834C217.705 527.81 226.791 520.844 238.907 519.026L283.431 512.363V519.026C283.431 550.829 264.652 562.036 241.33 562.036Z" fill="#2E4AA2"/>
<path d="M407.816 642.3L502.619 435.733H472.028L428.413 536.291L382.98 435.733H350.269L412.965 565.368L376.619 642.3H407.816Z" fill="#2E4AA2"/>
<path d="M576.352 581.42V493.584C576.352 471.776 589.982 456.632 610.275 456.632C632.083 456.632 641.169 471.171 641.169 489.949V581.42H669.641V493.281C669.641 472.382 683.27 456.632 703.261 456.632C724.765 456.632 734.155 470.868 734.155 489.949V581.42H762.323V486.921C762.323 448.757 737.486 431.493 712.044 431.493C693.568 431.493 674.79 438.156 663.28 459.055C655.405 440.277 637.838 431.493 619.665 431.493C602.703 431.493 584.53 439.065 575.444 455.118V435.733H548.184V581.42H576.352Z" fill="#2E4AA2"/>
<path d="M844.532 493.584C845.744 474.805 860.282 456.329 884.21 456.329C909.955 456.329 923.585 472.685 924.191 493.584H844.532ZM928.431 531.445C922.979 547.8 911.167 560.824 887.542 560.824C863.008 560.824 844.229 542.651 843.624 516.603H953.268C953.57 514.786 953.873 511.151 953.873 507.517C953.873 462.084 928.734 431.19 883.907 431.19C847.258 431.19 814.244 462.387 814.244 508.122C814.244 557.493 848.47 585.964 887.542 585.964C921.465 585.964 944.787 565.67 952.965 539.925L928.431 531.445Z" fill="#2E4AA2"/>
<path d="M1036.86 497.219C1036.86 475.108 1048.37 457.238 1070.78 457.238C1096.23 457.238 1104.71 473.594 1104.71 493.887V581.42H1133.18V489.041C1133.18 456.632 1115.91 431.493 1081.08 431.493C1064.12 431.493 1046.86 438.459 1036.26 456.632V435.733H1008.39V581.42H1036.86V497.219Z" fill="#2E4AA2"/>
<path d="M1234.8 389.695H1208.75V413.32C1208.75 426.041 1202.09 435.733 1186.34 435.733H1178.47V461.478H1206.33V541.44C1206.33 567.791 1222.08 582.935 1246.92 582.935C1256.61 582.935 1263.88 581.117 1266.3 580.209V555.978C1263.88 556.584 1258.73 557.19 1255.1 557.19C1240.25 557.19 1234.8 550.526 1234.8 537.199V461.478H1266.3V435.733H1234.8V389.695Z" fill="#2E4AA2"/>
<path d="M1310.33 543.56C1312.75 560.219 1329.71 585.964 1369.69 585.964C1405.74 585.964 1423 561.43 1423 540.834C1423 519.329 1409.07 503.276 1382.72 497.522L1359.09 492.373C1347.88 489.949 1342.43 483.589 1342.43 474.805C1342.43 464.81 1352.13 455.421 1366.66 455.421C1389.68 455.421 1395.74 472.079 1396.95 479.651L1422.09 470.262C1419.06 457.238 1406.64 431.19 1366.66 431.19C1338.19 431.19 1314.87 452.392 1314.87 477.228C1314.87 497.824 1328.5 513.272 1351.22 518.118L1376.05 523.57C1388.17 526.296 1394.83 533.262 1394.83 542.348C1394.83 552.646 1386.05 561.733 1370 561.733C1349.4 561.733 1337.89 549.618 1336.07 534.473L1310.33 543.56Z" fill="#2E4AA2"/>
</svg>
