<svg xmlns="http://www.w3.org/2000/svg" width="1em" height="1em" viewBox="0 0 24 24"><rect x="0" y="0" width="24" height="24" fill="rgba(255, 255, 255, 0)" /><path fill="currentColor" d="M13.875 22h-3.75q-.375 0-.65-.25t-.325-.625l-.3-2.325q-.325-.125-.612-.3q-.288-.175-.563-.375l-2.175.9q-.35.125-.7.025t-.55-.425L2.4 15.4q-.2-.325-.125-.7q.075-.375.375-.6l1.875-1.425Q4.5 12.5 4.5 12.337v-.675q0-.162.025-.337L2.65 9.9q-.3-.225-.375-.6q-.075-.375.125-.7l1.85-3.225q.175-.35.537-.438q.363-.087.713.038l2.175.9q.275-.2.575-.375q.3-.175.6-.3l.3-2.325q.05-.375.325-.625t.65-.25h3.75q.375 0 .65.25t.325.625l.3 2.325q.325.125.613.3q.287.175.562.375l2.175-.9q.35-.125.7-.025t.55.425L21.6 8.6q.2.325.125.7q-.075.375-.375.6l-1.875 1.425q.025.175.025.337v.675q0 .163-.05.338l1.875 1.425q.3.225.375.6q.075.375-.125.7l-1.85 3.2q-.2.325-.562.438q-.363.112-.713-.013l-2.125-.9q-.275.2-.575.375q-.3.175-.6.3l-.3 2.325q-.05.375-.325.625t-.65.25Zm-1.825-6.5q1.45 0 2.475-1.025Q15.55 13.45 15.55 12q0-1.45-1.025-2.475Q13.5 8.5 12.05 8.5q-1.475 0-2.488 1.025Q8.55 10.55 8.55 12q0 1.45 1.012 2.475Q10.575 15.5 12.05 15.5Zm0-2q-.625 0-1.062-.438q-.438-.437-.438-1.062t.438-1.062q.437-.438 1.062-.438t1.063.438q.437.437.437 1.062t-.437 1.062q-.438.438-1.063.438ZM12 12Zm-1 8h1.975l.35-2.65q.775-.2 1.438-.588q.662-.387 1.212-.937l2.475 1.025l.975-1.7l-2.15-1.625q.125-.35.175-.738q.05-.387.05-.787t-.05-.788q-.05-.387-.175-.737l2.15-1.625l-.975-1.7l-2.475 1.05q-.55-.575-1.212-.963q-.663-.387-1.438-.587L13 4h-1.975l-.35 2.65q-.775.2-1.437.587q-.663.388-1.213.938L5.55 7.15l-.975 1.7l2.15 1.6q-.125.375-.175.75q-.05.375-.05.8q0 .4.05.775t.175.75l-2.15 1.625l.975 1.7l2.475-1.05q.55.575 1.213.962q.662.388 1.437.588Z"/></svg>