<?xml version="1.0" encoding="utf-8"?>
<!-- Generator: Adobe Illustrator 26.3.1, SVG Export Plug-In . SVG Version: 6.00 Build 0)  -->
<svg version="1.1" id="b4507652-300d-4dad-b4e7-3391f5529675"
	 xmlns="http://www.w3.org/2000/svg" xmlns:xlink="http://www.w3.org/1999/xlink" x="0px" y="0px" viewBox="0 0 663.2 762"
	 style="enable-background:new 0 0 663.2 762;" xml:space="preserve">
<style type="text/css">
	.st0{fill:#B0BEC5;}
	.st1{fill:url(#SVGID_1_);}
	.st2{fill:#ECEFF1;}
	.st3{fill:#0052FF;}
	.st4{opacity:0.7;}
	.st5{fill:#4C5462;}
	.st6{opacity:0.6;}
	.st7{opacity:0.5;}
	.st8{opacity:0.4;}
	.st9{opacity:0.3;}
	.st10{fill:#727CF5;}
	.st11{fill:url(#SVGID_00000118370291979675822170000009034910163527564971_);}
	.st12{fill:url(#SVGID_00000113322397746168000660000010656443416429437838_);}
	.st13{fill:url(#SVGID_00000023986880700413350270000009623128214800697245_);}
	.st14{fill:url(#SVGID_00000123398931208074747830000016669315957173493918_);}
	.st15{fill:url(#SVGID_00000100363300857325926250000008839439814373638299_);}
	.st16{fill:url(#SVGID_00000076598442524736320460000001863245888840658839_);}
	.st17{fill:url(#SVGID_00000106849672289252404060000004274151540263900037_);}
	.st18{fill:url(#SVGID_00000032639389459632701550000015161669265255766697_);}
	.st19{fill:url(#SVGID_00000025403225477256308080000005960118701572923826_);}
	.st20{opacity:0.2;}
	.st21{fill:url(#SVGID_00000106838376575027422660000016078450083155655085_);}
	.st22{fill:url(#SVGID_00000181084674714864925000000016484565547927275707_);}
	.st23{fill:url(#SVGID_00000052813349687235652190000003269316231802657169_);}
	.st24{fill:url(#SVGID_00000161626217959054825720000010526197637379624125_);}
	.st25{fill:url(#SVGID_00000106106660206533985600000014451833865081136783_);}
	.st26{fill:url(#SVGID_00000091012720131266948580000001549901138060422313_);}
	.st27{fill:url(#SVGID_00000116935534381312450990000009240207709678235264_);}
	.st28{fill:url(#SVGID_00000066507382501325729880000006070119227228718504_);}
	.st29{fill:url(#SVGID_00000034088566658776649050000016241326267607860623_);}
	.st30{fill:url(#SVGID_00000079462913035724760260000012615945860219700361_);}
	.st31{fill:url(#SVGID_00000100362233506291173950000006460073270795930773_);}
	.st32{fill:url(#SVGID_00000041261276804654967510000002109359810262062476_);}
	.st33{fill:url(#SVGID_00000170965300551694446410000007934111453748478606_);}
	.st34{fill:url(#SVGID_00000059999143439833281200000007727334210344335248_);}
	.st35{fill:#CA7070;}
	.st36{opacity:0.2;fill:#FFFFFF;enable-background:new    ;}
	.st37{fill:#FFFFFF;}
	.st38{fill:url(#SVGID_00000151524017847866831960000006599987097288584093_);}
</style>
<rect x="333" y="279.6" class="st0" width="9.5" height="6.3"/>
<rect x="345.6" y="279.6" class="st0" width="9.5" height="6.3"/>
<rect x="358.3" y="279.6" class="st0" width="9.5" height="6.3"/>
<rect x="370.9" y="279.6" class="st0" width="9.5" height="6.3"/>
<rect x="383.5" y="279.6" class="st0" width="9.5" height="6.3"/>
<rect x="396.1" y="279.6" class="st0" width="9.5" height="6.3"/>
<rect x="408.7" y="279.6" class="st0" width="9.5" height="6.3"/>
<rect x="421.4" y="279.6" class="st0" width="9.5" height="6.3"/>
<rect x="434" y="279.6" class="st0" width="9.5" height="6.3"/>
<rect x="446.6" y="279.6" class="st0" width="9.5" height="6.3"/>
<linearGradient id="SVGID_1_" gradientUnits="userSpaceOnUse" x1="459.655" y1="23.5798" x2="459.655" y2="477.8698" gradientTransform="matrix(1 0 0 -1 0 761.8898)">
	<stop  offset="0" style="stop-color:#808080;stop-opacity:0.25"/>
	<stop  offset="0.54" style="stop-color:#808080;stop-opacity:0.12"/>
	<stop  offset="1" style="stop-color:#808080;stop-opacity:0.1"/>
</linearGradient>
<rect x="256.1" y="284" class="st1" width="407" height="454.3"/>
<rect x="262.9" y="587.3" class="st2" width="393.6" height="141.1"/>
<rect x="295.2" y="620.8" class="st3" width="15.2" height="72.3"/>
<g class="st4">
	<rect x="325.3" y="620.8" class="st5" width="15.2" height="72.3"/>
</g>
<g class="st6">
	<rect x="355.4" y="620.8" class="st5" width="15.2" height="72.3"/>
</g>
<g class="st7">
	<rect x="385.5" y="620.8" class="st5" width="15.2" height="72.3"/>
</g>
<g class="st7">
	<rect x="415.6" y="620.8" class="st5" width="15.2" height="72.3"/>
</g>
<g class="st8">
	<rect x="445.7" y="620.8" class="st5" width="15.2" height="72.3"/>
</g>
<g class="st9">
	<rect x="475.8" y="620.8" class="st5" width="15.2" height="72.3"/>
</g>
<circle class="st10" cx="600.7" cy="656.5" r="36.8"/>
<rect x="262.9" y="440.8" class="st2" width="393.6" height="141.1"/>
<rect x="295.2" y="474.2" class="st3" width="15.2" height="72.3"/>
<g class="st4">
	<rect x="325.3" y="474.2" class="st3" width="15.2" height="72.3"/>
</g>
<g class="st6">
	<rect x="355.4" y="474.2" class="st3" width="15.2" height="72.3"/>
</g>
<g class="st7">
	<rect x="385.5" y="474.2" class="st3" width="15.2" height="72.3"/>
</g>
<g class="st7">
	<rect x="415.6" y="474.2" class="st3" width="15.2" height="72.3"/>
</g>
<g class="st8">
	<rect x="445.7" y="474.2" class="st3" width="15.2" height="72.3"/>
</g>
<g class="st9">
	<rect x="475.8" y="474.2" class="st3" width="15.2" height="72.3"/>
</g>
<circle class="st10" cx="600.7" cy="509.9" r="36.8"/>
<rect x="262.9" y="294.2" class="st2" width="393.6" height="141.1"/>
<rect x="295.2" y="327.6" class="st3" width="15.2" height="72.3"/>
<g class="st4">
	<rect x="325.3" y="327.6" class="st5" width="15.2" height="72.3"/>
</g>
<g class="st6">
	<rect x="355.4" y="327.6" class="st5" width="15.2" height="72.3"/>
</g>
<g class="st7">
	<rect x="385.5" y="327.6" class="st5" width="15.2" height="72.3"/>
</g>
<g class="st7">
	<rect x="415.6" y="327.6" class="st5" width="15.2" height="72.3"/>
</g>
<g class="st8">
	<rect x="445.7" y="327.6" class="st5" width="15.2" height="72.3"/>
</g>
<g class="st9">
	<rect x="475.8" y="327.6" class="st5" width="15.2" height="72.3"/>
</g>
<linearGradient id="SVGID_00000153688686251614035830000004336918922088765080_" gradientUnits="userSpaceOnUse" x1="600.72" y1="358.8898" x2="600.72" y2="438.2299" gradientTransform="matrix(1 0 0 -1 0 761.8898)">
	<stop  offset="0" style="stop-color:#808080;stop-opacity:0.25"/>
	<stop  offset="0.54" style="stop-color:#808080;stop-opacity:0.12"/>
	<stop  offset="1" style="stop-color:#808080;stop-opacity:0.1"/>
</linearGradient>
<circle style="fill:url(#SVGID_00000153688686251614035830000004336918922088765080_);" cx="600.7" cy="363.3" r="39.7"/>
<circle class="st3" cx="600.7" cy="510.9" r="39.7"/>
<circle class="st3" cx="600.7" cy="657.5" r="39.7"/>
<circle class="st3" cx="600.7" cy="363.3" r="36.8"/>
<linearGradient id="SVGID_00000163068756476814844690000007574237102004363956_" gradientUnits="userSpaceOnUse" x1="665.04" y1="392.2198" x2="665.04" y2="410.0998" gradientTransform="matrix(1 0 0 -1 -268.41 692.8898)">
	<stop  offset="0" style="stop-color:#808080;stop-opacity:0.25"/>
	<stop  offset="0.54" style="stop-color:#808080;stop-opacity:0.12"/>
	<stop  offset="1" style="stop-color:#808080;stop-opacity:0.1"/>
</linearGradient>
<path style="fill:url(#SVGID_00000163068756476814844690000007574237102004363956_);" d="M471.8,300.7H326.4c-2.8,0-5-2.2-5-5v-7.9
	c0-2.8,2.2-5,5-5h145.4V300.7z"/>
<path class="st0" d="M471.8,298.6H329.1c-2.8,0-5-2.2-5-5v-4.8c0-2.8,2.2-5,5-5h142.7V298.6z"/>
<linearGradient id="SVGID_00000127005267840066976260000001713694753962014126_" gradientUnits="userSpaceOnUse" x1="479.6815" y1="396.7898" x2="479.6815" y2="527.2291" gradientTransform="matrix(1 0 0 -1 -268.41 692.8898)">
	<stop  offset="0" style="stop-color:#808080;stop-opacity:0.25"/>
	<stop  offset="0.54" style="stop-color:#808080;stop-opacity:0.12"/>
	<stop  offset="1" style="stop-color:#808080;stop-opacity:0.1"/>
</linearGradient>
<path style="fill:url(#SVGID_00000127005267840066976260000001713694753962014126_);" d="M101.4,203.2l105,92.9l122-25.8l-9.5-27.5
	L224.4,254l-94.6-83c-8.9-7.8-22.5-6.9-30.3,2c-0.5,0.6-1,1.2-1.4,1.8l0,0C91.8,183.7,93.2,196,101.4,203.2z"/>
<linearGradient id="SVGID_00000162336422460464300400000006515125408306860704_" gradientUnits="userSpaceOnUse" x1="614.0206" y1="422.5527" x2="614.0206" y2="451.0683" gradientTransform="matrix(1 0 0 -1 -268.41 692.8898)">
	<stop  offset="0" style="stop-color:#808080;stop-opacity:0.25"/>
	<stop  offset="0.54" style="stop-color:#808080;stop-opacity:0.12"/>
	<stop  offset="1" style="stop-color:#808080;stop-opacity:0.1"/>
</linearGradient>
<path style="fill:url(#SVGID_00000162336422460464300400000006515125408306860704_);" d="M328.3,270.3c0,0,31.1,0.9,42.6-16.3
	s-52.1-11.2-52.1-11.2L328.3,270.3z"/>
<linearGradient id="SVGID_00000127749117489954387140000008883390617181720498_" gradientUnits="userSpaceOnUse" x1="87.62" y1="619.2098" x2="87.62" y2="727.4498" gradientTransform="matrix(1 0 0 -1 0 761.8898)">
	<stop  offset="0" style="stop-color:#808080;stop-opacity:0.25"/>
	<stop  offset="0.54" style="stop-color:#808080;stop-opacity:0.12"/>
	<stop  offset="1" style="stop-color:#808080;stop-opacity:0.1"/>
</linearGradient>
<circle style="fill:url(#SVGID_00000127749117489954387140000008883390617181720498_);" cx="87.6" cy="88.6" r="54.1"/>
<linearGradient id="SVGID_00000074433732352755439070000010340055745167034786_" gradientUnits="userSpaceOnUse" x1="347.5388" y1="270.3809" x2="347.5388" y2="550.1898" gradientTransform="matrix(1 0 0 -1 -268.41 692.8898)">
	<stop  offset="0" style="stop-color:#808080;stop-opacity:0.25"/>
	<stop  offset="0.54" style="stop-color:#808080;stop-opacity:0.12"/>
	<stop  offset="1" style="stop-color:#808080;stop-opacity:0.1"/>
</linearGradient>
<path style="fill:url(#SVGID_00000074433732352755439070000010340055745167034786_);" d="M65.3,147.8c0,0-69.5,46.8-51.9,191.5
	c2.1,17.5,0.6,35.2-4.5,52.1L0,421c0,0,152.9,3.4,157.2,0c2.7-2.1,0.6-56.6-6.9-132.3c-4.6-46.3,9.8-110.8-39.5-146L65.3,147.8z"/>
<linearGradient id="SVGID_00000003808084732014486520000001101526672979903878_" gradientUnits="userSpaceOnUse" x1="116.39" y1="53.1498" x2="116.39" y2="342.6198" gradientTransform="matrix(1 0 0 -1 0 761.8898)">
	<stop  offset="0" style="stop-color:#808080;stop-opacity:0.25"/>
	<stop  offset="0.54" style="stop-color:#808080;stop-opacity:0.12"/>
	<stop  offset="1" style="stop-color:#808080;stop-opacity:0.1"/>
</linearGradient>
<polygon style="fill:url(#SVGID_00000003808084732014486520000001101526672979903878_);" points="157.2,419.3 225.1,562.7 
	232.8,708.7 184.7,708.7 164.1,557.6 122.8,484.5 81.6,708.7 33.5,708.7 48.1,542.1 0,421 "/>
<linearGradient id="SVGID_00000152248098744776208360000013409249725282591399_" gradientUnits="userSpaceOnUse" x1="499.2044" y1="-69.1002" x2="499.2044" y2="-15.8502" gradientTransform="matrix(1 0 0 -1 -268.41 692.8898)">
	<stop  offset="0" style="stop-color:#808080;stop-opacity:0.25"/>
	<stop  offset="0.54" style="stop-color:#808080;stop-opacity:0.12"/>
	<stop  offset="1" style="stop-color:#808080;stop-opacity:0.1"/>
</linearGradient>
<path style="fill:url(#SVGID_00000152248098744776208360000013409249725282591399_);" d="M232.8,708.7l14.6,22.3
	c0,0,49,18.9,27.5,30.9h-93.6v-53.2H232.8z"/>
<linearGradient id="SVGID_00000122714448191686694160000004647441591807517836_" gradientUnits="userSpaceOnUse" x1="347.1644" y1="-69.1002" x2="347.1644" y2="-15.8502" gradientTransform="matrix(1 0 0 -1 -268.41 692.8898)">
	<stop  offset="0" style="stop-color:#808080;stop-opacity:0.25"/>
	<stop  offset="0.54" style="stop-color:#808080;stop-opacity:0.12"/>
	<stop  offset="1" style="stop-color:#808080;stop-opacity:0.1"/>
</linearGradient>
<path style="fill:url(#SVGID_00000122714448191686694160000004647441591807517836_);" d="M80.8,708.7l14.6,22.3
	c0,0,49,18.9,27.5,30.9H29.2v-53.2H80.8z"/>
<g class="st20">
	
		<linearGradient id="SVGID_00000119102908492332488130000001839450530774381962_" gradientUnits="userSpaceOnUse" x1="370.6248" y1="555.5499" x2="370.6248" y2="659.3298" gradientTransform="matrix(1 0 0 -1 -268.41 692.8898)">
		<stop  offset="0" style="stop-color:#808080;stop-opacity:0.25"/>
		<stop  offset="0.54" style="stop-color:#808080;stop-opacity:0.12"/>
		<stop  offset="1" style="stop-color:#808080;stop-opacity:0.1"/>
	</linearGradient>
	<path style="fill:url(#SVGID_00000119102908492332488130000001839450530774381962_);" d="M88.5,33.6c-9.3,0-18.5,2.4-26.7,7
		c27.4-11.9,59.3,0.6,71.2,28c11.1,25.4,1.1,55.1-23,68.7c27.4-11.9,40-43.7,28.1-71.2C129.6,46.4,110.1,33.6,88.5,33.6L88.5,33.6z"
		/>
</g>
<linearGradient id="SVGID_00000174567747769494338290000000744412042175335053_" gradientUnits="userSpaceOnUse" x1="351.4106" y1="563.6998" x2="351.4106" y2="692.8898" gradientTransform="matrix(1 0 0 -1 -268.41 692.8898)">
	<stop  offset="0" style="stop-color:#808080;stop-opacity:0.25"/>
	<stop  offset="0.54" style="stop-color:#808080;stop-opacity:0.12"/>
	<stop  offset="1" style="stop-color:#808080;stop-opacity:0.1"/>
</linearGradient>
<path style="fill:url(#SVGID_00000174567747769494338290000000744412042175335053_);" d="M153.4,0l-15.1,23
	c-5.4,8.3-13.3,17.7-23,15.7c-4.5-0.9-8.1-4.2-11.8-7C91.8,22.4,77.2,16,62.1,15.9s-30.5,6.7-39,19.2c-6.3,9.2-8.5,20.5-9.7,31.6
	c-2.5,22.1,0,48.2,18.5,60.6c1.5,1.2,3.3,1.9,5.2,1.9c2-0.1,3.6-1.4,5.1-2.7c23.1-19.4,36-50.9,63.8-64.2
	c12.3-5.9,30.2-5.9,40.1-15.9C160.8,31.8,144.6,13.5,153.4,0z"/>
<g class="st20">
	
		<linearGradient id="SVGID_00000162333199314751674560000000588928759594361472_" gradientUnits="userSpaceOnUse" x1="355.33" y1="653.9015" x2="355.33" y2="676.9998" gradientTransform="matrix(1 0 0 -1 -268.41 692.8898)">
		<stop  offset="0" style="stop-color:#808080;stop-opacity:0.25"/>
		<stop  offset="0.54" style="stop-color:#808080;stop-opacity:0.12"/>
		<stop  offset="1" style="stop-color:#808080;stop-opacity:0.1"/>
	</linearGradient>
	<path style="fill:url(#SVGID_00000162333199314751674560000000588928759594361472_);" d="M97.6,31.7c3.6,2.9,7.2,6.1,11.8,7
		c1.8,0.4,3.7,0.3,5.6-0.1c-4.3-1-7.8-4.2-11.3-6.9C91.8,22.3,77.2,16,62.1,15.9c-1.1,0-2.1,0-3.2,0.1C73,16.8,86.6,23,97.6,31.7z"
		/>
	
		<linearGradient id="SVGID_00000030454189343758483300000004452226478923183289_" gradientUnits="userSpaceOnUse" x1="361.96" y1="563.6959" x2="361.96" y2="692.8898" gradientTransform="matrix(1 0 0 -1 -268.41 692.8898)">
		<stop  offset="0" style="stop-color:#808080;stop-opacity:0.25"/>
		<stop  offset="0.54" style="stop-color:#808080;stop-opacity:0.12"/>
		<stop  offset="1" style="stop-color:#808080;stop-opacity:0.1"/>
	</linearGradient>
	<path style="fill:url(#SVGID_00000030454189343758483300000004452226478923183289_);" d="M153.4,0l-8.7,13.3
		c0.8,10.9,5.6,23-4.5,33.2c-9.9,10-27.8,10-40.1,15.9c-27.9,13.3-40.7,44.8-63.8,64.2c-0.8,0.7-1.6,1.3-2.6,1.8
		c1.1,0.6,2.2,0.9,3.5,0.8c2-0.1,3.6-1.4,5.1-2.7c23.1-19.4,36-50.9,63.8-64.2c12.3-5.9,30.2-5.9,40.1-15.9
		C160.8,31.8,144.6,13.5,153.4,0z"/>
</g>
<g class="st20">
	
		<linearGradient id="SVGID_00000156584872627389662020000001362410509183334297_" gradientUnits="userSpaceOnUse" x1="397.7599" y1="270.3512" x2="397.7599" y2="550.1799" gradientTransform="matrix(1 0 0 -1 -268.41 692.8898)">
		<stop  offset="0" style="stop-color:#808080;stop-opacity:0.25"/>
		<stop  offset="0.54" style="stop-color:#808080;stop-opacity:0.12"/>
		<stop  offset="1" style="stop-color:#808080;stop-opacity:0.1"/>
	</linearGradient>
	<path style="fill:url(#SVGID_00000156584872627389662020000001362410509183334297_);" d="M150.3,288.7
		c-4.6-46.3,9.8-110.8-39.5-146l-10.4,1.2c47.4,35.5,33.4,99,37.9,144.8c7.5,75.6,9.5,130.1,6.9,132.3c-1.3,1-16.4,1.5-36.8,1.5
		c26.2,0.1,47.3-0.3,48.9-1.5C159.9,418.9,157.8,364.3,150.3,288.7z"/>
</g>
<linearGradient id="SVGID_00000129191337580952788950000011317357030661030546_" gradientUnits="userSpaceOnUse" x1="449.4135" y1="378.4198" x2="449.4135" y2="508.8391" gradientTransform="matrix(1 0 0 -1 -268.41 692.8898)">
	<stop  offset="0" style="stop-color:#808080;stop-opacity:0.25"/>
	<stop  offset="0.54" style="stop-color:#808080;stop-opacity:0.12"/>
	<stop  offset="1" style="stop-color:#808080;stop-opacity:0.1"/>
</linearGradient>
<path style="fill:url(#SVGID_00000129191337580952788950000011317357030661030546_);" d="M71.1,221.6l105,92.9l122-25.8l-9.5-27.5
	l-94.5,11.2l-94.6-83c-8.9-7.8-22.5-6.9-30.3,2c-0.5,0.6-1,1.2-1.4,1.8l0,0C61.5,202.1,62.9,214.3,71.1,221.6z"/>
<linearGradient id="SVGID_00000065777520910481057330000011101622905560593568_" gradientUnits="userSpaceOnUse" x1="583.7454" y1="404.1727" x2="583.7454" y2="432.6882" gradientTransform="matrix(1 0 0 -1 -268.41 692.8898)">
	<stop  offset="0" style="stop-color:#808080;stop-opacity:0.25"/>
	<stop  offset="0.54" style="stop-color:#808080;stop-opacity:0.12"/>
	<stop  offset="1" style="stop-color:#808080;stop-opacity:0.1"/>
</linearGradient>
<path style="fill:url(#SVGID_00000065777520910481057330000011101622905560593568_);" d="M298.1,288.7c0,0,31.1,0.9,42.6-16.3
	s-52.1-11.2-52.1-11.2L298.1,288.7z"/>
<linearGradient id="SVGID_00000062906070101569550710000011627001753704566938_" gradientUnits="userSpaceOnUse" x1="87.61" y1="596.0198" x2="87.61" y2="642.3998" gradientTransform="matrix(1 0 0 -1 0 761.8898)">
	<stop  offset="0" style="stop-color:#808080;stop-opacity:0.25"/>
	<stop  offset="0.54" style="stop-color:#808080;stop-opacity:0.12"/>
	<stop  offset="1" style="stop-color:#808080;stop-opacity:0.1"/>
</linearGradient>
<path style="fill:url(#SVGID_00000062906070101569550710000011627001753704566938_);" d="M84.9,119.5h5.4c11.3,0,20.5,9.2,20.5,20.5
	v5.4c0,11.3-9.2,20.5-20.5,20.5h-5.4c-11.3,0-20.5-9.2-20.5-20.5V140C64.4,128.7,73.6,119.5,84.9,119.5z"/>
<g class="st20">
	
		<linearGradient id="SVGID_00000001664771578561278140000009786604183601197970_" gradientUnits="userSpaceOnUse" x1="96.33" y1="53.1498" x2="96.33" y2="277.3398" gradientTransform="matrix(1 0 0 -1 0 761.8898)">
		<stop  offset="0" style="stop-color:#808080;stop-opacity:0.25"/>
		<stop  offset="0.54" style="stop-color:#808080;stop-opacity:0.12"/>
		<stop  offset="1" style="stop-color:#808080;stop-opacity:0.1"/>
	</linearGradient>
	<polygon style="fill:url(#SVGID_00000001664771578561278140000009786604183601197970_);" points="113.4,484.5 72.2,708.7 
		81.6,708.7 120.5,497.2 	"/>
	
		<linearGradient id="SVGID_00000021802190201442282950000008185826014311521978_" gradientUnits="userSpaceOnUse" x1="190.285" y1="53.1498" x2="190.285" y2="342.6198" gradientTransform="matrix(1 0 0 -1 0 761.8898)">
		<stop  offset="0" style="stop-color:#808080;stop-opacity:0.25"/>
		<stop  offset="0.54" style="stop-color:#808080;stop-opacity:0.12"/>
		<stop  offset="1" style="stop-color:#808080;stop-opacity:0.1"/>
	</linearGradient>
	<polygon style="fill:url(#SVGID_00000021802190201442282950000008185826014311521978_);" points="225.1,562.7 157.2,419.3 
		147.8,419.4 215.6,562.7 223.3,708.7 232.8,708.7 	"/>
</g>
<g class="st20">
	
		<linearGradient id="SVGID_00000013184887825372751930000017051398258730789007_" gradientUnits="userSpaceOnUse" x1="522.8171" y1="-69.1102" x2="522.8171" y2="-15.8602" gradientTransform="matrix(1 0 0 -1 -268.41 692.8898)">
		<stop  offset="0" style="stop-color:#808080;stop-opacity:0.25"/>
		<stop  offset="0.54" style="stop-color:#808080;stop-opacity:0.12"/>
		<stop  offset="1" style="stop-color:#808080;stop-opacity:0.1"/>
	</linearGradient>
	<path style="fill:url(#SVGID_00000013184887825372751930000017051398258730789007_);" d="M247.4,731.1l-14.6-22.3h-4.3l14.6,22.3
		c0,0,49,18.9,27.5,30.9h4.3C296.4,750,247.4,731.1,247.4,731.1z"/>
</g>
<g class="st20">
	
		<linearGradient id="SVGID_00000167384951446476500060000011252402986592906677_" gradientUnits="userSpaceOnUse" x1="375.0785" y1="-69.1102" x2="375.0785" y2="-15.8602" gradientTransform="matrix(1 0 0 -1 -268.41 692.8898)">
		<stop  offset="0" style="stop-color:#808080;stop-opacity:0.25"/>
		<stop  offset="0.54" style="stop-color:#808080;stop-opacity:0.12"/>
		<stop  offset="1" style="stop-color:#808080;stop-opacity:0.1"/>
	</linearGradient>
	<path style="fill:url(#SVGID_00000167384951446476500060000011252402986592906677_);" d="M99.6,731.1L85,708.8h-4.3l14.6,22.3
		c0,0,49,18.9,27.5,30.9h4.3C148.6,750,99.6,731.1,99.6,731.1z"/>
</g>
<g class="st20">
	
		<linearGradient id="SVGID_00000123422214576649292450000012442805828895905922_" gradientUnits="userSpaceOnUse" x1="259.45" y1="491.1698" x2="259.45" y2="501.5298" gradientTransform="matrix(1 0 0 -1 0 761.8898)">
		<stop  offset="0" style="stop-color:#808080;stop-opacity:0.25"/>
		<stop  offset="0.54" style="stop-color:#808080;stop-opacity:0.12"/>
		<stop  offset="1" style="stop-color:#808080;stop-opacity:0.1"/>
	</linearGradient>
	<polygon style="fill:url(#SVGID_00000123422214576649292450000012442805828895905922_);" points="304.2,265.7 302.4,260.4 
		214.7,270.7 	"/>
</g>
<linearGradient id="SVGID_00000121965429327588671020000004737918574952768919_" gradientUnits="userSpaceOnUse" x1="82.085" y1="507.7998" x2="82.085" y2="596.4398" gradientTransform="matrix(1 0 0 -1 0 761.8898)">
	<stop  offset="0" style="stop-color:#808080;stop-opacity:0.25"/>
	<stop  offset="0.54" style="stop-color:#808080;stop-opacity:0.12"/>
	<stop  offset="1" style="stop-color:#808080;stop-opacity:0.1"/>
</linearGradient>
<polygon style="fill:url(#SVGID_00000121965429327588671020000004737918574952768919_);" points="43.2,220.6 72.4,165.4 121,183.8 
	72.4,254.1 "/>
<path class="st35" d="M103.7,208.1l102.1,90.3l118.6-25.1l-9.2-26.7l-91.9,10.9l-92-80.8c-8.7-7.6-21.9-6.8-29.5,1.9
	c-0.5,0.5-0.9,1.1-1.4,1.7l0,0C94.3,189.1,95.7,201,103.7,208.1z"/>
<path class="st35" d="M324.4,273.4c0,0,30.3,0.8,41.5-15.9s-50.6-10.9-50.6-10.9L324.4,273.4z"/>
<circle class="st35" cx="90.3" cy="96.6" r="52.6"/>
<path class="st5" d="M68.6,154.2c0,0-67.6,45.5-50.4,186.2c2.1,17,0.6,34.3-4.3,50.6l-8.7,28.8c0,0,148.7,3.3,152.9,0
	c2.6-2.1,0.6-55.1-6.7-128.7c-4.4-45.1,9.5-107.8-38.4-142L68.6,154.2z"/>
<polygon class="st3" points="158,418.2 224,557.7 231.5,699.8 184.7,699.8 164.7,552.7 124.6,481.7 84.5,699.8 37.7,699.8 
	51.9,537.7 5.1,419.9 "/>
<path class="st5" d="M231.5,699.8l14.2,21.7c0,0,47.6,18.4,26.7,30.1h-91.1v-51.8H231.5z"/>
<path class="st5" d="M83.6,699.8l14.2,21.7c0,0,47.6,18.4,26.7,30.1h-91v-51.8H83.6z"/>
<path class="st36" d="M91.2,43.1c-9.1,0-18,2.3-25.9,6.8c26.7-11.4,57.7,1.1,69,27.8c10.4,24.5,0.9,53-22.2,66.2
	c26.7-11.6,38.9-42.6,27.3-69.2C131.1,55.5,112.1,43.1,91.2,43.1L91.2,43.1z"/>
<path class="st5" d="M154.3,10.4l-14.6,22.4c-5.3,8-12.9,17.2-22.3,15.3c-4.4-0.9-7.9-4-11.4-6.8C94.4,32.2,80.2,26,65.6,25.9
	s-29.7,6.5-38,18.6c-6.1,8.9-8.2,20-9.4,30.7c-2.4,21.5,0,46.9,18,59c1.5,1.2,3.2,1.8,5.1,1.8c1.9-0.1,3.5-1.4,5-2.6
	c22.5-18.8,35-49.5,62.1-62.4c12-5.7,29.3-5.8,39-15.4C161.4,41.4,145.7,23.5,154.3,10.4z"/>
<g class="st20">
	<path class="st37" d="M100,41.3c3.5,2.8,7,6,11.4,6.8c1.8,0.4,3.6,0.3,5.4-0.1c-4.2-1-7.6-4-11-6.7C94.4,32.2,80.2,26,65.6,25.9
		c-1,0-2,0-3.1,0.1C76.1,26.8,89.3,32.8,100,41.3z"/>
	<path class="st37" d="M154.3,10.4l-8.5,12.9c0.8,10.6,5.5,22.3-4.4,32.3c-9.6,9.7-27,9.7-39,15.4C75.3,84,62.8,114.7,40.3,133.5
		c-0.8,0.7-1.6,1.3-2.5,1.8c1,0.6,2.2,0.8,3.4,0.8c1.9-0.1,3.5-1.4,5-2.6c22.5-18.8,35-49.5,62.1-62.4c12-5.7,29.3-5.8,39-15.4
		C161.4,41.4,145.7,23.5,154.3,10.4z"/>
</g>
<path class="st36" d="M151.3,291.2c-4.4-45.1,9.5-107.8-38.4-142l-10.1,1.1c46,34.5,32.5,96.3,36.9,140.9
	c7.2,73.6,9.3,126.6,6.7,128.7c-1.3,1-16,1.4-35.8,1.5c25.5,0.1,46-0.3,47.5-1.5C160.6,417.8,158.6,364.8,151.3,291.2z"/>
<path class="st35" d="M74.3,226l102.1,90.3L295,291.2l-9.2-26.7l-91.9,10.9l-92-80.8c-8.7-7.6-21.9-6.8-29.5,1.9
	c-0.5,0.5-0.9,1.1-1.4,1.7l0,0C64.9,207,66.3,218.9,74.3,226z"/>
<path class="st35" d="M295,291.2c0,0,30.3,0.8,41.5-15.9s-50.6-10.9-50.6-10.9L295,291.2z"/>
<path class="st35" d="M88.2,126.7h4.2c11.3,0,20.5,9.2,20.5,20.5v4.2c0,11.3-9.2,20.5-20.5,20.5h-4.2c-11.3,0-20.5-9.2-20.5-20.5
	v-4.2C67.8,135.8,76.9,126.7,88.2,126.7z"/>
<g class="st20">
	<polygon class="st37" points="115.4,481.7 75.3,699.8 84.5,699.8 122.3,494 	"/>
	<polygon class="st37" points="224,557.7 158,418.2 148.8,418.3 214.8,557.7 222.3,699.8 231.5,699.8 	"/>
</g>
<path class="st36" d="M245.7,721.5l-14.2-21.7h-4.2l14.2,21.7c0,0,47.6,18.4,26.7,30.1h4.2C293.3,739.9,245.7,721.5,245.7,721.5z"/>
<path class="st36" d="M102,721.5l-14.2-21.7h-4.2l14.2,21.7c0,0,47.6,18.4,26.7,30.1h4.2C149.6,739.9,102,721.5,102,721.5z"/>
<polygon class="st36" points="301,268.8 299.2,263.7 213.9,273.7 "/>
<polygon class="st5" points="47.1,225 75.5,171.4 122.8,189.2 75.5,257.6 "/>
<linearGradient id="SVGID_00000030454684185268292910000003848192767296812721_" gradientUnits="userSpaceOnUse" x1="779.7595" y1="398.6398" x2="779.7595" y2="526.5089" gradientTransform="matrix(1 0 0 -1 -268.41 692.8898)">
	<stop  offset="0" style="stop-color:#808080;stop-opacity:0.25"/>
	<stop  offset="0.54" style="stop-color:#808080;stop-opacity:0.12"/>
	<stop  offset="1" style="stop-color:#808080;stop-opacity:0.1"/>
</linearGradient>
<path style="fill:url(#SVGID_00000030454684185268292910000003848192767296812721_);" d="M461.8,285.4l86-116.9
	c1.6-2.2,4.8-2.7,7-1.1c0,0,0,0,0,0l4,2.9c2.2,1.6,2.7,4.8,1.1,7c0,0,0,0,0,0l-86,116.9L461.8,285.4z"/>
<path class="st0" d="M463.5,286.6l84.5-115c1.6-2.2,4.8-2.7,7-1.1c0,0,0,0,0,0l0.4,0.3c2.2,1.6,2.7,4.8,1.1,7c0,0,0,0,0,0l-84.5,115
	L463.5,286.6z"/>
</svg>
